<svg xmlns="http://www.w3.org/2000/svg" viewBox="0 0 500 500"><rect width="500" height="500" rx="101.9" ry="101.9" fill="#00a4de"/><g fill="#fff"><path d="M278 258q-13-15-38-17c15-4 25-9 32-17s10-18 10-31a55 55 0 0 0-7-27 49 49 0 0 0-19-19c-7-4-16-6-26-8s-28-3-54-3h-62v228h64q39 0 56-3c11-2 21-5 28-9a53 53 0 0 0 22-21c5-9 8-20 8-32 0-17-5-31-14-41zm-107-71h13q24 0 32 5c5 3 7 9 7 18s-2 14-8 17-16 5-31 5h-13v-45zm53 130c-6 4-16 6-31 6h-22v-50h23c15 0 25 2 31 6s8 10 8 20-3 14-9 18zM358 306a29 29 0 1 0 28 29 29 29 0 0 0-28-29zM333 136h50v152h-50z"/></g></svg>